<svg id="Calque_1" data-name="Calque 1" xmlns="http://www.w3.org/2000/svg" viewBox="0 0 615.96 349.13"><defs><style>.cls-1{fill:#fee10b;}</style></defs><path class="cls-1" d="M11.33,337a40,40,0,0,1-.93-54.85c1.46-1.6,3-3.1,4.56-4.64L272.82,19.18c1.42-1.42,2.82-2.85,4.14-4.35,16.72-19,42.41-19.87,60.37-1.92Q403.45,79,469.48,145.21q67,67,133.88,134.12c19.72,19.8,15.72,50.95-8.1,64.29a40,40,0,0,1-46-5.35c-1.74-1.55-3.37-3.23-5-4.88Q428.34,217.33,312.49,101.26c-1.29-1.3-2.41-2.77-4.87-5.6-1.61,2.42-2.54,4.5-4,6Q186.52,219,69.36,336.25C52.46,353.16,27.36,353.42,11.33,337Z" transform="translate(0.01 0.01)"/></svg>