<svg id="Calque_1" data-name="Calque 1" xmlns="http://www.w3.org/2000/svg" viewBox="0 0 615.96 349.13"><defs><style>.cls-1{fill:#fee10b;}</style></defs><path class="cls-1" d="M604.62,12.15A40,40,0,0,1,605.55,67c-1.46,1.6-3,3.1-4.56,4.64L343.13,329.94c-1.42,1.42-2.82,2.85-4.14,4.35-16.72,19-42.41,19.87-60.37,1.92q-66.12-66.12-132.15-132.3-67-67-133.88-134.12C-7.13,50-3.13,18.84,20.69,5.5a40,40,0,0,1,46,5.35c1.74,1.55,3.37,3.23,5,4.88Q187.63,131.78,303.46,247.86c1.29,1.3,2.41,2.77,4.87,5.6,1.61-2.42,2.54-4.5,4.05-6Q429.44,130.11,546.59,12.87C563.49-4,588.59-4.3,604.62,12.15Z" transform="translate(0 0)"/></svg>