<?xml version="1.0" encoding="utf-8"?>
<!-- Generator: Adobe Illustrator 25.2.1, SVG Export Plug-In . SVG Version: 6.00 Build 0)  -->
<svg version="1.1" id="Calque_1" xmlns="http://www.w3.org/2000/svg" xmlns:xlink="http://www.w3.org/1999/xlink" x="0px" y="0px"
	 viewBox="0 0 616 618.1" style="enable-background:new 0 0 616 618.1;" xml:space="preserve">
<style type="text/css">
	.st0{fill:#2F2F2F;}
</style>
<path class="st0" d="M599.4,7.7c17.9,13,21.9,38.1,8.9,56c-0.9,1.2-1.8,2.3-2.7,3.4c-1.6,1.7-3.3,3.3-4.9,5
	c-77.2,77.4-154.5,154.8-231.8,232.1c-1.5,1.3-3.1,2.6-4.8,3.7l-0.8,2.3c1.8,1,3.9,1.7,5.2,3.1c78.2,78.1,156.3,156.3,234.3,234.6
	c16.2,16.2,17.5,39.5,3.4,55.9c-14.4,16.7-39.6,18.5-56.3,4.1c0,0,0,0,0,0l-0.2-0.1c-1.9-1.6-3.6-3.4-5.4-5.2
	c-77.3-77.3-154.5-154.7-231.7-232.1c-1.3-1.3-2.4-2.8-4.8-5.4c-1.4,2.1-2.9,4-4.5,5.9c-78.1,78.2-156.1,156.4-234.2,234.6
	c-16.8,16.8-42,16.9-58,0.3c-14.3-15-14.8-38.5-1.2-54.1c1.5-1.8,3.2-3.4,4.9-5c77.4-77.5,154.7-155,232.1-232.5
	c1.4-1.4,3.1-2.6,5.1-4.3c-2-2.1-3.4-3.6-4.9-5.1C169.1,226.6,91,148.4,13,70.2C-3.3,53.9-4.4,30.2,10.2,13.9
	c14.4-16.1,38.9-17.8,55.4-4c2.2,1.8,4.2,3.9,6.2,5.9l231.7,232.1c1.3,1.3,2.4,2.8,4.9,5.6c1.6-2.4,2.6-4.5,4.1-6
	c77.8-78,155.7-156,233.6-233.9C561.6-2.1,582.7-4.4,599.4,7.7z"/>
</svg>
