<svg id="Calque_1" data-name="Calque 1" xmlns="http://www.w3.org/2000/svg" viewBox="0 0 616 618.06"><defs><style>.cls-1{fill:#fff;}</style></defs><path class="cls-1" d="M599.42,7.68a40.09,40.09,0,0,1,6.12,59.37c-1.57,1.72-3.26,3.34-4.9,5Q484.77,188.14,368.86,304.15a44.72,44.72,0,0,1-4.76,3.68l-.77,2.32c1.76,1,3.85,1.68,5.23,3.06Q485.79,430.42,602.88,547.76c16.2,16.23,17.55,39.51,3.37,55.89a39.91,39.91,0,0,1-56.3,4.14l-.17-.14c-1.89-1.64-3.63-3.44-5.39-5.21q-115.89-116-231.74-232.07c-1.29-1.32-2.42-2.75-4.77-5.43a61.52,61.52,0,0,1-4.49,5.9Q186.3,488.17,69.15,605.41c-16.8,16.81-42,16.86-58,.28A40.1,40.1,0,0,1,10,551.57c1.54-1.75,3.22-3.37,4.87-5Q130.91,430.32,247,314.1c1.41-1.41,3.06-2.57,5.14-4.29-2-2.08-3.43-3.59-4.9-5.06Q130.08,187.47,13,70.18C-3.24,53.9-4.33,30.26,10.26,13.9a39.94,39.94,0,0,1,55.4-4c2.16,1.82,4.15,3.85,6.15,5.85l231.7,232.13c1.29,1.3,2.41,2.77,4.85,5.61,1.62-2.44,2.57-4.52,4.08-6Q429.14,130.49,546,13.61C561.6-2.06,582.75-4.39,599.42,7.68Z" transform="translate(-0.03 -0.01)"/></svg>