<svg id="Calque_1" data-name="Calque 1" xmlns="http://www.w3.org/2000/svg" viewBox="0 0 534.57 467.42"><defs><style>.cls-1{fill:#fde00b;}</style></defs><path class="cls-1" d="M667.26,313.57c-.68,39.67-12.35,75.57-31.3,109.3-16.48,29.33-37,55.67-60.11,80.07C528.8,552.66,474.6,593.26,416.3,628.69c-10.9,6.62-21.34,6.82-32.36.19a820.63,820.63,0,0,1-121.26-88.49c-32.05-28.37-61-59.54-85-95.12C155.65,412.54,140,377.19,134.4,337.91c-9.88-68.91,23.75-131,84.2-157.72,54.52-24.07,106.21-16.43,153.38,20.23A120.32,120.32,0,0,1,396.81,227c2.71,3.91,3.91,3.32,6.46-.14,24.22-32.89,56.75-52.66,97-58.33,45.46-6.39,85.94,6.07,119.81,37.22C651.66,234.73,666.82,271.36,667.26,313.57Z" transform="translate(-132.7 -166.34)"/></svg>