<svg id="Calque_1" data-name="Calque 1" xmlns="http://www.w3.org/2000/svg" viewBox="0 0 534.6 467.12"><defs><style>.cls-1{fill:#fff;}</style></defs><path class="cls-1" d="M228.28,205.35c60-28.66,129.13-3.38,158.21,56.46,2.83,5.82,6.88,9.59,13.29,9.66,6.62.08,10.85-3.69,13.76-9.71C435.36,216.6,481,190.3,530.65,194.05c53.78,4.06,99.6,45.95,108.12,99,1.08,6.71,1.2,13.58,1.77,20.38-.1,32.91-10.3,62.92-25.56,91.5-23.22,43.52-55.83,79.42-92.09,112.2a751.88,751.88,0,0,1-118,87c-3.4,2-5.86,2.35-9.37.23-55.06-33.16-105.83-71.8-150.34-118.3-27.21-28.42-50.81-59.5-67.33-95.52-11.89-25.94-19.3-52.94-17.88-81.66C162.28,261.1,185.37,225.86,228.28,205.35Z" transform="translate(-132.62 -166.76)"/><path class="cls-1" d="M177.8,390.6c16.52,36,40.12,67.1,67.33,95.52,44.51,46.5,95.28,85.14,150.34,118.3,3.51,2.12,6,1.8,9.37-.23a751.88,751.88,0,0,0,118.05-87C559.15,484.39,591.76,448.49,615,405c15.26-28.58,25.46-58.59,25.56-91.5-.57-6.8-.69-13.67-1.77-20.38-8.52-53.09-54.34-95-108.12-99C481,190.3,435.36,216.6,413.54,261.76c-2.91,6-7.14,9.79-13.76,9.71-6.41-.07-10.46-3.84-13.29-9.66-29.08-59.84-98.21-85.12-158.21-56.46-42.91,20.51-66,55.75-68.36,103.59C158.5,337.66,165.91,364.66,177.8,390.6ZM665,288.09c4.7,27.54,1.41,54.4-6.21,80.94-12.18,42.46-35.64,78.59-63.54,112.12C559,524.74,516.1,561,470,593.59c-17.39,12.27-35.64,23.34-53.48,35-10.88,7.1-21.58,7-32.76.24-48.18-29.11-93.36-62.18-134.51-100.7-31-29.05-58.64-60.91-80.73-97.36-19-31.32-31.6-64.95-35.11-101.53-7.42-77.29,41.88-139.06,104.57-156.3,55.67-15.31,104.3-1.83,145.62,38.16,5.95,5.75,10.84,12.6,16.62,19.43,3.41-4.3,6.53-8.59,10-12.55C442.77,181,484,164,532.91,167.3,598.91,171.75,653.86,222.64,665,288.09Z" transform="translate(-132.62 -166.76)"/></svg>