<svg id="Calque_1" data-name="Calque 1" xmlns="http://www.w3.org/2000/svg" viewBox="0 0 512.04 477.84"><defs><style>.cls-1{fill:#fff;}</style></defs><path class="cls-1" d="M656,214q.07,139.23,0,278.46C656,522.09,633.1,545,603.44,545q-118.49.11-237-.06a10.89,10.89,0,0,0-9,4q-37.33,41.39-74.91,82.55c-1.35,1.48-2.62,3-4.08,4.39-2.73,2.51-5.8,3.89-9.57,2.37s-5.21-4.45-5.43-8.23c-.09-1.49-.07-3-.07-4.49V545h-5.85c-20.17,0-40.33.05-60.49,0C166.79,544.93,144,522.24,144,492q-.08-139,0-277.95c0-30,22.81-52.93,52.75-52.94q203.22-.09,406.43,0C633.16,161.07,656,184,656,214Z" transform="translate(-143.98 -161.02)"/></svg>