<svg id="Calque_1" data-name="Calque 1" xmlns="http://www.w3.org/2000/svg" viewBox="0 0 426.65 511.79"><defs><style>.cls-1{fill:#fff;}</style></defs><path class="cls-1" d="M599.57,504.74c11.46,10.11,15.93,22.94,12.1,37.81-3.6,14-12.85,23-26.86,26.85a48,48,0,0,1-12.87,1.32H399.48q-86.73,0-173.46,0c-19.23,0-33.84-10.56-38.3-28-3.75-14.7.3-27.43,11.59-37.47,14.34-12.75,26.41-27.19,35.18-44.31,10.9-21.3,15.89-43.9,15.87-67.81,0-22.65-1.33-45.37.63-67.95,4.65-53.77,31.2-93.71,78-120.28a133.84,133.84,0,0,1,45.95-15.76c2.91-.46,3.44-1.72,3.38-4.26-.14-6-.1-12,0-18,.15-13.27,9.09-22.77,21.38-22.77s21.27,9.53,21.34,22.75c0,6,.1,12,0,18-.06,2.52.4,3.75,3.32,4.26C487.2,200.14,535,247.21,546.62,309.64A146.27,146.27,0,0,1,549,337c-.07,17.83.14,35.66-.06,53.48C548.44,436.29,565.18,474.37,599.57,504.74Z" transform="translate(-186.36 -144.07)"/><path class="cls-1" d="M472.79,592h5C472.52,623,444.54,650,413,654.86c-41.05,6.29-78.88-17.76-90.31-57.4-1.58-5.5-1.58-5.51,4.23-5.51Z" transform="translate(-186.36 -144.07)"/></svg>