<svg id="Calque_1" data-name="Calque 1" xmlns="http://www.w3.org/2000/svg" viewBox="0 0 459.03 459.21"><defs><style>.cls-1{fill:#fff;}</style></defs><path class="cls-1" d="M630,399.73A39.92,39.92,0,0,1,589.66,440q-71.24.13-142.48,0h-6.62v6.67c0,46.66-.08,93.32,0,140,0,13.78-4,25.65-15,34.38-12.43,9.85-26.39,11.86-40.87,5.6-14.25-6.15-22.31-17.46-24-33.06a67.83,67.83,0,0,1-.2-7q0-70,0-140V440h-6.69q-71.49,0-143,0a40,40,0,0,1-26.5-69.8c7.94-7.08,17.35-10.2,28-10.19q70.74.07,141.48,0h6.74v-6.55q0-70.74,0-141.48c0-23.62,18-41.41,41.09-41a39.9,39.9,0,0,1,38.5,35.81c.29,3.15.37,6.32.37,9.48q0,68.25,0,136.48V360h6.07c47.66,0,95.32-.08,143,0C612.21,360.1,629.89,377.67,630,399.73Z" transform="translate(-170.97 -171)"/></svg>