<svg id="Calque_1" data-name="Calque 1" xmlns="http://www.w3.org/2000/svg" viewBox="0 0 501.58 511.68"><defs><style>.cls-1{fill:#f7e02b;}</style></defs><path class="cls-1" d="M534.37,330.93a188.93,188.93,0,0,1-17.1,85.27c-4.36,9.53-9,19-15.3,27.43-2.41,3.23-1.92,5.09.85,7.82q47.16,46.49,94.09,93.22c14.07,14,28.22,27.85,42.15,42,18.32,18.56,16.09,46.32-4.79,61.82-13.52,10-33.82,9.81-47.07-.63a90.79,90.79,0,0,1-7.8-7q-67.21-66.74-134.28-133.6c-3.8-3.8-6.41-4.39-11.25-1.7-31.81,17.61-66.11,25.51-102.3,23.16C275,525,228.28,501.18,192.36,457.18a184.43,184.43,0,0,1-41.28-99.52c-5.71-55.35,9.43-104.55,45.53-146.8,28.16-33,63.92-54.05,106.5-62.52,59.73-11.89,113.74,1.53,161.1,39.64,32.37,26,53.44,59.87,64.09,100A169.15,169.15,0,0,1,534.37,330.93ZM341.8,212.84C273,213.06,217.65,268.65,218,337.23c.3,68.4,55.95,123.84,124.2,123.72,68.45-.11,124-56,123.87-124.56A123.94,123.94,0,0,0,341.8,212.84Z" transform="translate(-149.91 -144.14)"/></svg>