<svg id="Calque_1" data-name="Calque 1" xmlns="http://www.w3.org/2000/svg" viewBox="0 0 469.39 511.92"><defs><style>.cls-1{fill:#fff;}</style></defs><path class="cls-1" d="M633.67,560.62c6.18,44.58-26.74,87.82-71,94.3-47,6.87-90.58-24.37-97.75-70A93.22,93.22,0,0,1,466,550.36l-114.89-65.5c-12.58-7.17-25.2-14.27-37.7-21.59-2.77-1.63-4.49-1.35-6.91.75-26.44,23-62.81,27.78-93.78,12.56s-50.1-47.36-47.46-81.91c2.62-34.34,20.14-59.53,51.8-73s61.66-8.33,88.42,13.45c3.47,2.82,5.64,2.93,9.4.78q72.54-41.64,145.27-83c1.87-1.06,3.71-2.17,5.78-3.38-5.13-24.66-1.54-47.74,12.86-68.64a83.36,83.36,0,0,1,46.92-33.71,85.16,85.16,0,0,1,99.49,43.81c18.23,36.06,8.24,80.27-23.49,105.36-31.45,24.86-81.14,26.35-115.64-9.08L332,375.12a87.41,87.41,0,0,1,0,49.68c7.41,4.24,14.74,8.45,22.09,12.64q64,36.46,128,73c3.05,1.74,4.78,1.82,7.57-.78C515,486,544.76,478.89,577.4,490.45S628.91,526.32,633.67,560.62Z" transform="translate(-165.03 -143.95)"/></svg>