<svg id="Calque_1" data-name="Calque 1" xmlns="http://www.w3.org/2000/svg" viewBox="0 0 362.94 362.68"><defs><style>.cls-1{fill:#fff;}</style></defs><path class="cls-1" d="M581.77,437.13c.3,47.15.17,94.3.2,141.45,0,1-.11,1.92-.18,3.13h-74.9v-5.65c0-40,.2-80-.24-119.95a134.08,134.08,0,0,0-3.79-30.6c-4.17-16.79-15.91-25.17-33.16-25.59-26.9-.66-42.09,12.42-45.6,39.8a201,201,0,0,0-1.44,24.9c-.15,37-.07,74-.07,111v6.13h-75V340h72.06v32.55c1.05-.77,1.53-.95,1.74-1.29,15.9-25.38,39.54-36.74,68.75-37.53,17-.46,33.6,1.64,49.09,9.32,19,9.46,29.77,25.51,35.78,45.26C579.85,404.21,581.67,420.63,581.77,437.13Z" transform="translate(-219.03 -219.03)"/><path class="cls-1" d="M306.11,262.44c.05,24.28-19.69,44.27-43.62,44.17-23.78-.1-43.4-19.9-43.46-43.86a43.54,43.54,0,1,1,87.08-.31Z" transform="translate(-219.03 -219.03)"/><path class="cls-1" d="M299.81,340.15V581.57H225.23V340.15Z" transform="translate(-219.03 -219.03)"/></svg>